<?xml version="1.0" encoding="utf-8"?>
<!-- Generator: Adobe Illustrator 26.4.0, SVG Export Plug-In . SVG Version: 6.00 Build 0)  -->
<svg version="1.1" id="Layer_1" xmlns="http://www.w3.org/2000/svg" xmlns:xlink="http://www.w3.org/1999/xlink" x="0px" y="0px"
	 viewBox="0 0 1200 400" style="enable-background:new 0 0 1200 400;" xml:space="preserve">
<style type="text/css">
	.st0{fill:url(#SVGID_1_);}
	.st1{fill:url(#SVGID_00000013914765502569340950000011442211448414795672_);}
	.st2{fill:url(#SVGID_00000033336796562040271800000005370428698401699760_);}
	.st3{fill:url(#SVGID_00000018201274476439868870000006287643678605167790_);}
	.st4{fill:url(#SVGID_00000065066951029108729640000007575395242934367886_);}
	.st5{fill:url(#SVGID_00000036944976960474889050000000787754150634412684_);}
	.st6{fill:url(#SVGID_00000062876581455335860630000006985562091656744891_);}
	.st7{fill:url(#SVGID_00000072262495960813787110000004040684966202764687_);}
	.st8{fill:url(#SVGID_00000160163407727237282500000010266395466270330015_);}
	.st9{fill:url(#SVGID_00000097481606487077967560000004721792466826224800_);}
	.st10{fill:#E8F2FF;}
</style>
<g>
	<g>
		<linearGradient id="SVGID_1_" gradientUnits="userSpaceOnUse" x1="178.7576" y1="186.2207" x2="286.5508" y2="305.1199">
			<stop  offset="0" style="stop-color:#008CD7"/>
			<stop  offset="0.9992" style="stop-color:#174593"/>
		</linearGradient>
		<path class="st0" d="M243.5,235.6c-0.9-0.9-2.3-0.9-3.1,0l-18.8,18.8c-0.9,0.9-0.9,2.3,0,3.1l18.8,18.8c0.4,0.4,1,0.6,1.6,0.6
			s1.1-0.2,1.6-0.6l18.8-18.8c0.9-0.9,0.9-2.3,0-3.1L243.5,235.6z"/>
		
			<linearGradient id="SVGID_00000013882110148491568840000004324460744417925249_" gradientUnits="userSpaceOnUse" x1="207.9925" y1="159.7166" x2="315.7857" y2="278.6157">
			<stop  offset="0" style="stop-color:#008CD7"/>
			<stop  offset="0.9992" style="stop-color:#174593"/>
		</linearGradient>
		<path style="fill:url(#SVGID_00000013882110148491568840000004324460744417925249_);" d="M271.4,207.6c-0.9-0.9-2.3-0.9-3.1,0
			l-18.8,18.8c-0.9,0.9-0.9,2.3,0,3.1l18.8,18.8c0.4,0.4,1,0.6,1.6,0.6c0.6,0,1.1-0.2,1.6-0.6l18.8-18.8c0.9-0.9,0.9-2.3,0-3.1
			L271.4,207.6z"/>
		
			<linearGradient id="SVGID_00000083790639030384662130000002304798065836301243_" gradientUnits="userSpaceOnUse" x1="236.7589" y1="133.6372" x2="344.5521" y2="252.5363">
			<stop  offset="0" style="stop-color:#008CD7"/>
			<stop  offset="0.9992" style="stop-color:#174593"/>
		</linearGradient>
		<path style="fill:url(#SVGID_00000083790639030384662130000002304798065836301243_);" d="M299.3,179.7c-0.4-0.4-1-0.6-1.6-0.6
			c-0.6,0-1.1,0.2-1.6,0.6l-18.8,18.8c-0.9,0.9-0.9,2.3,0,3.1l18.8,18.8c0.4,0.4,1,0.6,1.6,0.6c0.6,0,1.1-0.2,1.6-0.6
			C310.5,209.1,310.5,190.9,299.3,179.7z"/>
		
			<linearGradient id="SVGID_00000096780798578982802140000015582777943881972922_" gradientUnits="userSpaceOnUse" x1="206.5603" y1="161.015" x2="314.3535" y2="279.9142">
			<stop  offset="0" style="stop-color:#008CD7"/>
			<stop  offset="0.9992" style="stop-color:#174593"/>
		</linearGradient>
		<path style="fill:url(#SVGID_00000096780798578982802140000015582777943881972922_);" d="M240.3,220.3c0.4,0.4,1,0.6,1.6,0.6
			s1.1-0.2,1.6-0.6l18.8-18.8c0.9-0.9,0.9-2.3,0-3.1l-18.8-18.8c-0.8-0.8-2.3-0.8-3.1,0l-18.8,18.8c-0.9,0.9-0.9,2.3,0,3.1
			L240.3,220.3z"/>
		
			<linearGradient id="SVGID_00000114753771499758213560000004491935880810701722_" gradientUnits="userSpaceOnUse" x1="235.7955" y1="134.5106" x2="343.5887" y2="253.4098">
			<stop  offset="0" style="stop-color:#008CD7"/>
			<stop  offset="0.9992" style="stop-color:#174593"/>
		</linearGradient>
		<path style="fill:url(#SVGID_00000114753771499758213560000004491935880810701722_);" d="M268.3,192.4c0.4,0.4,1,0.6,1.6,0.6
			c0.6,0,1.1-0.2,1.6-0.6l18.8-18.8c0.4-0.4,0.6-1,0.6-1.6s-0.2-1.1-0.6-1.6c-5.4-5.4-12.6-8.4-20.3-8.4c-7.7,0-14.9,3-20.3,8.4
			c-0.9,0.9-0.9,2.3,0,3.1L268.3,192.4z"/>
		
			<linearGradient id="SVGID_00000095339853246878298770000000005513290145864851_" gradientUnits="userSpaceOnUse" x1="184.5257" y1="251.8507" x2="47.2569" y2="124.2803">
			<stop  offset="0" style="stop-color:#00AE90"/>
			<stop  offset="1" style="stop-color:#007552"/>
		</linearGradient>
		<path style="fill:url(#SVGID_00000095339853246878298770000000005513290145864851_);" d="M159.7,207.6c-0.9-0.9-2.3-0.9-3.1,0
			l-18.8,18.8c-0.9,0.9-0.9,2.3,0,3.1c5.4,5.4,12.6,8.4,20.3,8.4c7.7,0,14.9-3,20.3-8.4c0.9-0.9,0.9-2.3,0-3.1L159.7,207.6z"/>
		
			<linearGradient id="SVGID_00000103240396852534463380000013669893769588291227_" gradientUnits="userSpaceOnUse" x1="211.0784" y1="223.2793" x2="73.8097" y2="95.7089">
			<stop  offset="0" style="stop-color:#00AE90"/>
			<stop  offset="1" style="stop-color:#007552"/>
		</linearGradient>
		<path style="fill:url(#SVGID_00000103240396852534463380000013669893769588291227_);" d="M187.6,179.7c-0.8-0.8-2.3-0.8-3.1,0
			l-18.8,18.8c-0.9,0.9-0.9,2.3,0,3.1l18.8,18.8c0.4,0.4,1,0.6,1.6,0.6s1.1-0.2,1.6-0.6l18.8-18.8c0.9-0.9,0.9-2.3,0-3.1
			L187.6,179.7z"/>
		
			<linearGradient id="SVGID_00000037655103469190950490000009195567043371024783_" gradientUnits="userSpaceOnUse" x1="185.1845" y1="251.1418" x2="47.9158" y2="123.5714">
			<stop  offset="0" style="stop-color:#00AE90"/>
			<stop  offset="1" style="stop-color:#007552"/>
		</linearGradient>
		<path style="fill:url(#SVGID_00000037655103469190950490000009195567043371024783_);" d="M151.1,200c0-0.6-0.2-1.1-0.6-1.6
			l-18.8-18.8c-0.9-0.9-2.3-0.9-3.1,0c-11.2,11.2-11.2,29.4,0,40.6c0.4,0.4,1,0.6,1.6,0.6s1.1-0.2,1.6-0.6l18.8-18.8
			C150.9,201.1,151.1,200.6,151.1,200z"/>
		
			<linearGradient id="SVGID_00000157306204084783295070000009250552670185704832_" gradientUnits="userSpaceOnUse" x1="212.0634" y1="222.2194" x2="74.7947" y2="94.6491">
			<stop  offset="0" style="stop-color:#00AE90"/>
			<stop  offset="1" style="stop-color:#007552"/>
		</linearGradient>
		<path style="fill:url(#SVGID_00000157306204084783295070000009250552670185704832_);" d="M156.5,192.4c0.4,0.4,1,0.6,1.6,0.6
			s1.1-0.2,1.6-0.6l18.8-18.8c0.9-0.9,0.9-2.3,0-3.1l-18.8-18.8c-0.9-0.9-2.3-0.9-3.1,0l-18.8,18.8c-0.9,0.9-0.9,2.3,0,3.1
			L156.5,192.4z"/>
		
			<linearGradient id="SVGID_00000043442209643120017560000001741433770702815889_" gradientUnits="userSpaceOnUse" x1="238.9408" y1="193.2988" x2="101.6721" y2="65.7284">
			<stop  offset="0" style="stop-color:#00AE90"/>
			<stop  offset="1" style="stop-color:#007552"/>
		</linearGradient>
		<path style="fill:url(#SVGID_00000043442209643120017560000001741433770702815889_);" d="M184.5,164.4c0.4,0.4,1,0.6,1.6,0.6
			s1.1-0.2,1.6-0.6l18.8-18.8c0.9-0.9,0.9-2.3,0-3.1l-18.8-18.8c-0.9-0.9-2.3-0.9-3.1,0l-18.8,18.8c-0.9,0.9-0.9,2.3,0,3.1
			L184.5,164.4z"/>
	</g>
	<path class="st10" d="M499.7,232.4v-37.5c0-8.3-3.9-13.2-10.5-13.2c-6.9,0-11.7,5.7-11.7,13.9v36.8H459v-37.5
		c0-8.3-3.9-13.2-10.5-13.2c-6.7,0-11.6,5.8-11.6,13.9v36.8h-18.5v-65.4h18.5v7.7l1.2,0.2c2.5-5.7,9.1-9.4,16.8-9.4
		c8.7,0,14.6,3.4,17.6,10.2l0.5,1.2l0.6-1.1c3.6-6.8,10.9-10.3,21.7-10.3c14.7,0,23.1,9.9,23.1,27v39.9H499.7z"/>
	<path class="st10" d="M561.6,233.6c-9.2,0-17-3.3-23.2-9.7c-6.1-6.6-9.2-14.8-9.2-24.2c0-9.4,3.1-17.5,9.2-24.1
		c6.2-6.5,14-9.9,23.2-9.9c9.6,0,17.3,3.8,19.3,9.5l1.2-0.2v-8.1h18.5v65.4h-18.5v-8.1l-1.2-0.2
		C578.9,229.8,571.2,233.6,561.6,233.6z M565.2,182.4c-5,0-9.1,1.7-12.5,5.1c-3.4,3.2-5.1,7.3-5.1,12.2c0,4.8,1.7,9,5.1,12.4
		c3.5,3.3,7.6,4.9,12.5,4.9c5,0,9.3-1.7,12.7-4.9c3.6-3.4,5.4-7.6,5.4-12.4c0-4.8-1.8-9-5.4-12.2
		C574.5,184.1,570.2,182.4,565.2,182.4z"/>
	<path class="st10" d="M614.9,232.4v-65.4h18.5v8.5l1.2,0.3c2.9-6.5,9.8-10.2,18.7-10.2c1.2,0,2.7,0.1,4.5,0.3V183
		c-2-0.4-4-0.5-6-0.5c-11.6,0-18.5,6.7-18.5,18v31.9H614.9z"/>
	<polygon class="st10" points="712.6,166.9 730.6,166.9 742.8,199.8 760.8,167.9 778.8,199.8 791,166.9 809,166.9 782.4,235.5 
		760.8,197.3 739.2,235.5 	"/>
	<path class="st10" d="M846.7,234.4c-10,0-18.7-3.4-25.9-10c-7.1-6.8-10.5-14.9-10.5-24.7c0-9.7,3.5-18,10.5-24.6
		c7.2-6.8,15.7-10.2,25.9-10.2c10,0,18.6,3.4,25.8,10.2c7.1,6.6,10.7,14.8,10.7,24.6c0,9.8-3.5,17.9-10.7,24.7
		C865.3,231,856.6,234.4,846.7,234.4z M846.7,181.6c-5.1,0-9.3,1.8-12.8,5.4c-3.5,3.4-5.2,7.7-5.2,12.7c0,5,1.8,9.5,5.2,12.9
		c3.5,3.5,7.7,5.2,12.7,5.2s9.3-1.8,12.7-5.2c3.5-3.6,5.2-7.9,5.2-12.9c0-5-1.8-9.3-5.2-12.7C856,183.4,851.7,181.6,846.7,181.6z"/>
	<path class="st10" d="M894.7,232.4v-65.4h18.5v8.5l1.2,0.3c2.9-6.5,9.8-10.2,18.7-10.2c1.2,0,2.7,0.1,4.5,0.3V183
		c-2-0.4-4-0.5-6-0.5c-11.6,0-18.5,6.7-18.5,18v31.9H894.7z"/>
	<path class="st10" d="M1011.3,232.4l37.5-49.4h-32.2l11.6-16.1h51.7l-37.1,49.4h35.8v16.1H1011.3z M989.3,232.4l-22-31.1v31.1
		h-18.5v-91h18.5v54.8l20.7-29.3h20.7l-22.7,31.5l24.3,33.9H989.3z"/>
	<path class="st10" d="M691.3,232.4c-11.9,0-21.6-9.7-21.6-21.6v-69.3h17.9v25.5h11.6l6.4,16.6h-18v27.4c0,3,2.4,5.4,5.4,5.4h20.9
		v16.1H691.3z"/>
	<path class="st10" d="M375.6,234.4c-8.9,0-16.5-1.5-22.5-4.6c-5.5-2.8-10.4-6.7-14.5-11.6l11.4-12.9c4,4.9,8.2,8.4,12.4,10.3
		c4.6,2.1,9.4,3.1,14.1,3.1c3.7,0,6.7-0.7,9.2-2c2.8-1.6,4.2-3.9,4.2-7c0-2.7-1.1-4.9-3.4-6.6c-1.9-1.5-4.4-2.7-7.2-3.6
		c-2.7-0.8-5.5-1.6-8.3-2.2c-9.6-2.1-16.8-5.3-21.4-9.7c-4.5-4.3-6.8-10-6.8-17.1c0-5.1,1.5-9.7,4.4-13.5c3-3.9,7-7,12-9.2
		c5-2.2,10.4-3.4,16.1-3.4c8.8,0,15.8,1.3,20.8,4c4.5,2.4,8.3,5.6,11.3,9.5L395.9,169c-2.6-2.7-5.4-4.7-8.4-6.2
		c-3.6-1.7-7.4-2.6-11.2-2.6c-3.9,0-7.1,0.7-9.5,2c-2.8,1.6-4.2,3.9-4.2,6.9c0,2.4,1,4.4,3,6c1.7,1.3,3.8,2.4,6.3,3.2
		c2.4,0.7,4.9,1.4,7.4,1.9c6.1,1.2,11.5,2.9,16.1,5.1c4.5,2.2,8,5,10.4,8.5c2.4,3.4,3.6,7.7,3.6,12.8c0,5.9-1.4,11-4.3,15
		c-2.9,4.1-6.9,7.2-11.9,9.3C388.1,233.3,382.2,234.4,375.6,234.4z"/>
</g>
</svg>
