<svg width="526.2" height="135.8" xmlns="http://www.w3.org/2000/svg" version="1.1" xml:space="preserve">
 <g>
  <title>Layer 1</title>
  <g id="Grid"/>
  <g id="Fonts"/>
  <g id="svg_2">
   <path class="st1" d="m176.2,30.1l0,58.5l-9.5,0l-0.7,-5.7c-3.2,4.9 -8.3,6.6 -13.3,6.6c-12.1,0 -21.3,-8 -21.3,-21.6c0,-14.2 9,-21.6 21,-21.6c4.4,0 11.1,2.3 13.6,6.6l0,-22.8l10.2,0zm-34.6,37.9c0,7.2 5.2,12.1 11.7,12.1c6.4,0 12,-4.7 12,-12.1c0,-7.2 -5.5,-12.1 -12,-12.1c-6.5,0 -11.7,4.6 -11.7,12.1z" fill="#000000" id="svg_3"/>
   <path class="st1" d="m217.8,47.4l9.8,0l0,41.3l-9.6,0l-0.5,-6c-2.3,4.9 -8.8,7.2 -13.4,7.3c-12.2,0.1 -21.3,-7.5 -21.3,-21.9c0,-14.2 9.5,-21.7 21.5,-21.6c5.5,0 10.8,2.6 13.1,6.7l0.4,-5.8zm-24.8,20.6c0,7.9 5.4,12.6 12.2,12.6c16.1,0 16.1,-25 0,-25c-6.8,-0.1 -12.2,4.5 -12.2,12.4z" fill="#000000" id="svg_4"/>
   <path class="st1" d="m248.8,35.7l0,11.7l11.4,0l0,8.8l-11.5,0l0,17.8c0,3.9 2.2,5.9 5.4,5.9c1.6,0 3.4,-0.5 4.9,-1.3l2.8,8.7c-2.9,1.2 -5.4,1.7 -8.5,1.8c-9,0.3 -14.8,-4.8 -14.8,-15.1l0,-17.7l-7.7,0l0,-8.8l7.7,0l0,-10.7l10.3,-1.1z" fill="#000000" id="svg_5"/>
   <path class="st1" d="m300.6,47.4l9.8,0l0,41.3l-9.6,0l-0.5,-6c-2.3,4.9 -8.8,7.2 -13.4,7.3c-12.2,0.1 -21.3,-7.5 -21.3,-21.9c0,-14.2 9.5,-21.7 21.5,-21.6c5.5,0 10.8,2.6 13.1,6.7l0.4,-5.8zm-24.8,20.6c0,7.9 5.4,12.6 12.2,12.6c16.1,0 16.1,-25 0,-25c-6.7,-0.1 -12.2,4.5 -12.2,12.4z" fill="#000000" id="svg_6"/>
   <path class="st1" d="m319,105.9l0,-58.5l9.5,0l0.7,5.7c3.2,-4.6 8.7,-6.6 13.4,-6.6c12.7,0 21.2,9.5 21.2,21.6c0,12.1 -7.6,21.6 -20.9,21.6c-4.4,0 -10.8,-1.3 -13.7,-5.9l0,22.1l-10.2,0zm34.6,-37.8c0,-6.4 -4.4,-11.7 -11.7,-11.7c-7.4,0 -11.7,5.3 -11.7,11.7s4.8,11.7 11.7,11.7c6.9,0 11.7,-5.3 11.7,-11.7z" fill="#000000" id="svg_7"/>
   <path class="st1" d="m404.1,47.4l9.8,0l0,41.3l-9.6,0l-0.5,-6c-2.3,4.9 -8.8,7.2 -13.4,7.3c-12.2,0.1 -21.3,-7.5 -21.3,-21.9c0,-14.2 9.5,-21.7 21.5,-21.6c5.5,0 10.8,2.6 13.1,6.7l0.4,-5.8zm-24.8,20.6c0,7.9 5.4,12.6 12.2,12.6c16.1,0 16.1,-25 0,-25c-6.7,-0.1 -12.2,4.5 -12.2,12.4z" fill="#000000" id="svg_8"/>
   <path class="st1" d="m452.9,88.7l0,-21.6c0,-6.3 -3.4,-11.1 -10,-11.1c-6.3,0 -10.6,5.3 -10.6,11.6l0,21.1l-10.1,0l0,-41.4l9.1,0l0.7,5.6c4.2,-4.1 8.4,-6.2 13.6,-6.2c9.7,0 17.5,7.3 17.5,20.3l0,21.7l-10.2,0z" fill="#000000" id="svg_9"/>
   <path class="st1" d="m480.7,71.7c0.7,5.1 5.1,8.8 12.3,8.8c3.8,0 8.7,-1.4 11.1,-3.9l6.5,6.4c-4.4,4.5 -11.5,6.7 -17.8,6.7c-14.2,0 -22.7,-8.8 -22.7,-22c0,-12.6 8.5,-21.6 21.9,-21.6c13.8,0 22.4,8.5 20.9,25.5l-32.2,0l0,0.1zm22.4,-8.5c-0.7,-5.4 -4.9,-8 -10.7,-8c-5.5,0 -10,2.7 -11.6,8l22.3,0z" fill="#000000" id="svg_10"/>
  </g>
  <g id="svg_11">
   <path class="st1" d="m118,67.9c0,-29 -23.5,-52.5 -52.5,-52.5l-52.4,0l0,68.1l13.9,0l0,-15.6l0,-38.6l38.6,0c21.3,0 38.6,17.3 38.6,38.6l0,0l0,35.6c8.5,-9.4 13.8,-21.9 13.8,-35.6l0,0z" fill="#5A5BC1" id="svg_12"/>
   <polygon class="st2" points="27,87.8 13.1,87.8 13.1,120.4 27,120.4 27,106.5    " fill="#E7088E" id="svg_13"/>
   <polygon class="st3" points="45.2,72 31.3,72 31.3,115.4 31.3,120.4 45.2,120.4 45.2,115.4    " fill="#FF8300" id="svg_14"/>
   <polygon class="st4" points="63.4,67.9 63.4,55.9 49.5,55.9 49.5,67.9 49.5,115.4 49.5,120.4 63.4,120.4 63.4,115.4    " fill="#1ABA00" id="svg_15"/>
   <path class="st5" d="m81.6,67.9l0,-5.5l-13.9,0l0,5.5l0,47.5l0,4.9c4.8,-0.2 9.5,-1 13.9,-2.5l0,-2.5l0,-47.4z" fill="#00B3FE" id="svg_16"/>
   <path class="st2" d="m99.8,75.4l-13.9,0l0,32.4l0,8.5c5,-2.1 9.6,-5 13.7,-8.5l0.2,0l0,-32.4z" fill="#E7088E" id="svg_17"/>
  </g>
 </g>

</svg>
